<?xml version="1.0" encoding="UTF-8"?>
<svg width="800px" height="800px" viewBox="0 0 24 24" version="1.1" xmlns="http://www.w3.org/2000/svg">
    <path d="M19.952,9.186c0.041-0.204,0.062-0.409,0.062-0.615c0-1.657-1.343-3-3-3c-0.206,0-0.411,0.021-0.615,0.062 C15.692,4.141,14.305,3,12.667,3c-1.637,0-3.024,1.141-3.732,2.633C8.73,5.592,8.525,5.571,8.319,5.571c-1.657,0-3,1.343-3,3 c0,0.206,0.021,0.411,0.062,0.615C3.889,9.894,2.748,11.281,2.748,12.918c0,1.638,1.141,3.024,2.633,3.732 C5.34,16.856,5.319,17.061,5.319,17.267c0,1.657,1.343,3,3,3c0.206,0,0.411-0.021,0.615-0.062 c0.708,1.492,2.095,2.633,3.732,2.633c1.638,0,3.024-1.141,3.732-2.633c0.204,0.041,0.409,0.062,0.615,0.062c1.657,0,3-1.343,3-3 c0-0.206-0.021-0.411-0.062-0.615c1.492-0.708,2.633-2.095,2.633-3.732C22.585,11.281,21.444,9.894,19.952,9.186z M12.667,18.838 c-3.268,0-5.919-2.651-5.919-5.919s2.651-5.919,5.919-5.919s5.919,2.651,5.919,5.919S15.935,18.838,12.667,18.838z M14.667,12.918 c0,1.105-0.895,2-2,2s-2-0.895-2-2s0.895-2,2-2S14.667,11.813,14.667,12.918z"/>
</svg>
